# xmcd CD database file
#
# Track frame offsets:
#	150
#	20244
#	38400
#	56942
#	83733
#	100759
#	115715
#	135440
#	148992
#	167265
#	183389
#	203105
#	225253
#	241737
#	262405
#	293747
#
# Disc length: 4306 seconds
#
# Revision: 0
# Processed by: cddbd v1.5.2PL0 Copyright (c) Steve Scherf et al.
# Submitted via: CDex 1.70beta2
#
DISCID=d810d010
DTITLE=Artistes divers - Salsa Latina
DYEAR=2009
DGENRE=Salsa
TTITLE0=Yuri Buenaventura|Salsa
TTITLE1=Africando|Yay boy
TTITLE2=Orlando Poleo|Je t'apporte la salsa
TTITLE3=Fruko y Sus Tesos|El preso
TTITLE4=David Alvarez and Juego de Manos|Cuida'o cuida'o
TTITLE5=Chano Pozo and Dizzie Gillespie|Manteca
TTITLE6=Tony Canales|Rumba para los rumberos
TTITLE7=Ismael Rivera|El negro bembon
TTITLE8=Anthony Cruz|Ven
TTITLE9=Isaac Delgado|El macao
TTITLE10=Tito Rojas|Digame Senora
TTITLE11=Elio Reve y su Charancon|Changui a la loma del chivo
TTITLE12=Batazo|Mas sabrosa que un helado
TTITLE13=Delgondo|Destination amazone
TTITLE14=Eddie Palmieri and Ismael Quintana|Puerto Rico
TTITLE15=Pete Rodriguez|I like it like that
EXTD=YEAR: 2009
EXTT0=
EXTT1=
EXTT2=
EXTT3=
EXTT4=
EXTT5=
EXTT6=
EXTT7=
EXTT8=
EXTT9=
EXTT10=
EXTT11=
EXTT12=
EXTT13=
EXTT14=
EXTT15=
PLAYORDER=
